{"title":"Black Sheep [2006] Dvdrip - PRESTiGE","uid":6753960,"size":744458992,"categoryP":"video","categoryS":"movies","magnet":"?xt=urn:btih:10d52082e0707725ac215cac574bf3adea16da7d&amp;dn=Black+Sheep+%5B2006%5D+Dvdrip+-+PRESTiGE&amp;tr=udp%3A%2F%2Ftracker.openbittorrent.com%3A80&amp;tr=udp%3A%2F%2Fopen.demonii.com%3A1337&amp;tr=udp%3A%2F%2Ftracker.coppersurfer.tk%3A6969&amp;tr=udp%3A%2F%2Fexodus.desync.com%3A6969","seeders":0,"leechers":1,"uploader":"sceneline","files":5,"time":1318971221,"description":"- &lt;a href=&quot;\nhttp://www.Speed.Cd&quot; rel=&quot;nofollow&quot; target=&quot;_NEW&quot;&gt;\nhttp://www.Speed.Cd&lt;/a&gt;      fast  and The Hottest Private Tracker on the net\n\nPlease Seed back to make the speed Faster!!!\n\n------------------nfo--------------------------\n-[align=center][img]http://www.pix2links.com/image/hVXbZ.jpg[/img]\n\n[IMG]http://i796.photobucket.com/albums/yy246/jungledave7080/twisted/PresInfoRaw-1.png[/IMG]\n\nComplete name : Black Sheep [2006] Dvdrip - PRESTiGE.avi \nFormat : AVI \nFormat/Info : Audio Video Interleave \nFile size : 701 MiB \nDuration : 1h 26mn \nOverall bit rate : 1 127 Kbps \nIMDB: http://www.imdb.com/title/tt0779982/\nEncoder:[color=#6600CC][b][i]Twisted[/i][/b][/color]\nSource: Black Sheep Unrated - PRESTiGE\n\n[IMG]http://i796.photobucket.com/albums/yy246/jungledave7080/twisted/PresVidRaw-1.png[/IMG]\n\nID : 0 \nFormat : MPEG-4 Visual \nFormat profile : Advanced Simple@L5 \nFormat settings, BVOP : 2 \nFormat settings, QPel : No \nFormat settings, GMC : No warppoints \nFormat settings, Matrix : Default (H.263) \nMuxing mode : Packed bitstream \nCodec ID : XVID \nCodec ID/Hint : XviD \nDuration : 1h 26mn \nBit rate : 989 Kbps \nWidth : 720 pixels \nHeight : 304 pixels \nDisplay aspect ratio : 2.35:1 \nFrame rate : 23.976 fps \nColor space : YUV \nChroma subsampling : 4:2:0 \nBit depth : 8 bits \nScan type : Progressive \nCompression mode : Lossy \nBits/(Pixel*Frame) : 0.189 \nStream size : 615 MiB (88%) \nWriting library : XviD 63 \n\n\n[IMG]http://i796.photobucket.com/albums/yy246/jungledave7080/twisted/PresAudRaw-1.png[/IMG]\n\nID : 1 \nFormat : MPEG Audio \nFormat version : Version 1 \nFormat profile : Layer 3 \nMode : Joint stereo \nMode extension : MS Stereo \nCodec ID : 55 \nCodec ID/Hint : MP3 \nDuration : 1h 26mn \nBit rate mode : Constant \nBit rate : 128 Kbps \nChannel(s) : 2 channels \nSampling rate : 44.1 KHz \nCompression mode : Lossy \nDelay relative to video : 26ms \nStream size : 79.6 MiB (11%) \nAlignment : Split accross interleaves \nInterleave, duration : 42 ms (1.00 video frame) \nInterleave, preload duration : 500 ms \n\n\n[IMG]http://i796.photobucket.com/albums/yy246/jungledave7080/twisted/PresScrnRaw-1.png[/IMG]\n\n[img]http://www.pix2links.com/image/xEZ5M.png[/img]\n[img]http://www.pix2links.com/image/j5MG.png[/img]\n[img]http://www.pix2links.com/image/ucZYU.png[/img]\n[img]http://www.pix2links.com/image/YUchj.png[/img]\n\n\n[IMG]http://i796.photobucket.com/albums/yy246/jungledave7080/twisted/PresNoteRaw-1.png[/IMG]\n\n[color=#FF0000][b]WE DONT RELEASE EVERYTHING TO OTHERS SITES YOU WANT MORE OF OUR STUFF COME FIND US AT .......[/b][/color]\n[color=#FF0000][b]WE ARE LOOKING FOR SUPPLIERS BLURAY CAM R5 PRE RETAIL DVD GOT SOMETHING WE MIGHT LIKE WHEN YOU FIND US TELL US.......[/b][/color]\n\n\nGreets going out to\n\n| Bigguy | DiLLoN | Thorn | Flawl3ss | Imagine | CTFX | BMB | akosipalos | HiTM4N | PA4U2C |\n\n\n[img]http://i.imgur.com/YvsDx.png[/img][/align]","torrent":{"xt":"urn:btih:10d52082e0707725ac215cac574bf3adea16da7d","amp;dn":"Black+Sheep+%5B2006%5D+Dvdrip+-+PRESTiGE","amp;tr":["udp%3A%2F%2Ftracker.openbittorrent.com%3A80","udp%3A%2F%2Fopen.demonii.com%3A1337","udp%3A%2F%2Ftracker.coppersurfer.tk%3A6969","udp%3A%2F%2Fexodus.desync.com%3A6969"],"infoHash":"10d52082e0707725ac215cac574bf3adea16da7d","infoHashBuffer":{"type":"Buffer","data":[16,213,32,130,224,112,119,37,172,33,92,172,87,75,243,173,234,22,218,125]},"announce":[],"urlList":[]}}